<svg width="17" height="17" viewBox="0 0 17 17" fill="none" xmlns="http://www.w3.org/2000/svg">
<path d="M6.94631 4.89192C8.47421 3.16944 10.8514 2.42734 13.0361 2.42734C13.1719 2.42734 13.3021 2.48128 13.3981 2.57731C13.4942 2.67333 13.5481 2.80357 13.5481 2.93937C13.5481 5.12404 12.806 7.50124 11.0835 9.02914C11.0419 9.72277 10.8275 10.4171 10.521 11.0267C10.1796 11.7054 9.70514 12.315 9.17399 12.7185C8.65445 13.1131 7.98266 13.3759 7.31907 13.1288C6.69098 12.8946 6.2677 12.2754 6.02192 11.3961L4.57936 9.95284C3.70003 9.70775 3.08081 9.28447 2.84664 8.65638C2.5995 7.99279 2.86234 7.321 3.25695 6.80146C3.66043 6.27031 4.27009 5.79583 4.9487 5.45447C5.55836 5.14794 6.25268 4.93356 6.94563 4.8926M6.03831 6.10851C5.82253 6.18057 5.61218 6.26795 5.40885 6.36998C4.8381 6.65741 4.36226 7.04041 4.07279 7.42136C3.77444 7.8146 3.73621 8.11089 3.80653 8.29932C3.8632 8.45361 4.04684 8.67959 4.55341 8.87007C4.66879 8.61132 4.83469 8.25358 5.04292 7.84327C5.30781 7.32236 5.64507 6.70929 6.03831 6.10851ZM7.10606 11.4234C7.29586 11.93 7.52252 12.1129 7.67681 12.171C7.86455 12.2406 8.16153 12.2024 8.55477 11.9047C8.93573 11.6146 9.31873 11.1387 9.60615 10.568C9.70946 10.3627 9.79662 10.1529 9.86762 9.93851C9.30803 10.3014 8.72915 10.6337 8.13354 10.9339C7.72255 11.1421 7.36481 11.308 7.10606 11.4234ZM2.99001 10.9646C3.2652 10.7347 3.61521 10.6139 3.97361 10.6249C4.33202 10.636 4.67389 10.7783 4.93437 11.0247L4.94051 11.0315C5.486 11.5709 5.47712 12.4338 5.01083 12.9875C4.80943 13.2278 4.5343 13.4012 4.27555 13.5282C4.01134 13.6579 3.72665 13.7555 3.47337 13.8286C3.16888 13.9152 2.85922 13.9825 2.54625 14.03L2.52986 14.032L2.5244 14.0327H2.52235C2.44437 14.0432 2.36504 14.0355 2.2905 14.0103C2.21596 13.9851 2.14823 13.9431 2.09257 13.8875C2.0369 13.8319 1.9948 13.7642 1.96952 13.6897C1.94425 13.6152 1.93648 13.5359 1.94683 13.4579V13.4558L1.94751 13.4504L1.95024 13.434C1.96276 13.345 1.97779 13.2565 1.9953 13.1684C2.02739 12.997 2.07791 12.7615 2.15096 12.5055C2.22755 12.2293 2.32783 11.9602 2.45067 11.7013C2.57697 11.4418 2.75038 11.1674 2.99001 10.9646ZM10.2622 5.64973C10.1662 5.55384 10.0361 5.49998 9.90039 5.49998C9.76471 5.49998 9.63456 5.55384 9.53856 5.64973L9.05588 6.1324C8.96544 6.22947 8.9162 6.35785 8.91854 6.4905C8.92088 6.62315 8.97462 6.74971 9.06843 6.84353C9.16224 6.93734 9.28881 6.99108 9.42146 6.99342C9.55411 6.99576 9.68249 6.94652 9.77955 6.85607L10.2622 6.3734C10.3581 6.27739 10.412 6.14725 10.412 6.01156C10.412 5.87587 10.3581 5.74573 10.2622 5.64973Z" fill="white"/>
</svg>
